<mxfile host="app.diagrams.net" modified="2022-08-24T06:43:37.528Z" agent="5.0 (Macintosh; Intel Mac OS X 10_15_7) AppleWebKit/537.36 (KHTML, like Gecko) Chrome/104.0.0.0 Safari/537.36" etag="DVgK0OFSeN0e_D-NFwnr" version="20.2.6" type="github">
  <diagram id="LKBsTf8attPC8_2JJrJQ" name="第 1 页">
    <mxGraphModel dx="1426" dy="624" grid="1" gridSize="10" guides="1" tooltips="1" connect="1" arrows="1" fold="1" page="1" pageScale="1" pageWidth="827" pageHeight="1169" math="0" shadow="0">
      <root>
        <mxCell id="0" />
        <mxCell id="1" parent="0" />
        <mxCell id="S0ygH5e0wK9PVDV0vU4a-3" style="edgeStyle=orthogonalEdgeStyle;rounded=0;orthogonalLoop=1;jettySize=auto;html=1;entryX=0.5;entryY=0;entryDx=0;entryDy=0;fontSize=24;strokeColor=#3399FF;" edge="1" parent="1" source="S0ygH5e0wK9PVDV0vU4a-1" target="S0ygH5e0wK9PVDV0vU4a-2">
          <mxGeometry relative="1" as="geometry" />
        </mxCell>
        <mxCell id="S0ygH5e0wK9PVDV0vU4a-1" value="&lt;font style=&quot;font-size: 24px;&quot;&gt;开始&lt;/font&gt;" style="rounded=1;whiteSpace=wrap;html=1;strokeColor=#97D077;" vertex="1" parent="1">
          <mxGeometry x="469" y="20" width="116" height="40" as="geometry" />
        </mxCell>
        <mxCell id="S0ygH5e0wK9PVDV0vU4a-5" style="edgeStyle=orthogonalEdgeStyle;rounded=0;orthogonalLoop=1;jettySize=auto;html=1;entryX=1;entryY=0.5;entryDx=0;entryDy=0;fontSize=24;strokeColor=#3399FF;" edge="1" parent="1" source="S0ygH5e0wK9PVDV0vU4a-2" target="S0ygH5e0wK9PVDV0vU4a-1">
          <mxGeometry relative="1" as="geometry">
            <Array as="points">
              <mxPoint x="693" y="185" />
              <mxPoint x="693" y="40" />
            </Array>
          </mxGeometry>
        </mxCell>
        <mxCell id="S0ygH5e0wK9PVDV0vU4a-6" value="否" style="edgeLabel;html=1;align=center;verticalAlign=middle;resizable=0;points=[];fontSize=24;" vertex="1" connectable="0" parent="S0ygH5e0wK9PVDV0vU4a-5">
          <mxGeometry x="-0.141" y="-3" relative="1" as="geometry">
            <mxPoint as="offset" />
          </mxGeometry>
        </mxCell>
        <mxCell id="S0ygH5e0wK9PVDV0vU4a-22" style="edgeStyle=orthogonalEdgeStyle;rounded=0;orthogonalLoop=1;jettySize=auto;html=1;entryX=0.5;entryY=0;entryDx=0;entryDy=0;fontSize=24;strokeColor=#3399FF;" edge="1" parent="1" source="S0ygH5e0wK9PVDV0vU4a-2" target="S0ygH5e0wK9PVDV0vU4a-7">
          <mxGeometry relative="1" as="geometry">
            <Array as="points">
              <mxPoint x="527" y="300" />
              <mxPoint x="150" y="300" />
            </Array>
          </mxGeometry>
        </mxCell>
        <mxCell id="S0ygH5e0wK9PVDV0vU4a-23" style="edgeStyle=orthogonalEdgeStyle;rounded=0;orthogonalLoop=1;jettySize=auto;html=1;entryX=0.5;entryY=0;entryDx=0;entryDy=0;fontSize=24;strokeColor=#3399FF;" edge="1" parent="1" source="S0ygH5e0wK9PVDV0vU4a-2" target="S0ygH5e0wK9PVDV0vU4a-8">
          <mxGeometry relative="1" as="geometry">
            <Array as="points">
              <mxPoint x="527" y="300" />
              <mxPoint x="330" y="300" />
            </Array>
          </mxGeometry>
        </mxCell>
        <mxCell id="S0ygH5e0wK9PVDV0vU4a-24" style="edgeStyle=orthogonalEdgeStyle;rounded=0;orthogonalLoop=1;jettySize=auto;html=1;entryX=0.5;entryY=0;entryDx=0;entryDy=0;fontSize=24;strokeColor=#3399FF;" edge="1" parent="1" source="S0ygH5e0wK9PVDV0vU4a-2" target="S0ygH5e0wK9PVDV0vU4a-9">
          <mxGeometry relative="1" as="geometry">
            <Array as="points">
              <mxPoint x="527" y="340" />
              <mxPoint x="527" y="340" />
            </Array>
          </mxGeometry>
        </mxCell>
        <mxCell id="S0ygH5e0wK9PVDV0vU4a-26" style="edgeStyle=orthogonalEdgeStyle;rounded=0;orthogonalLoop=1;jettySize=auto;html=1;fontSize=24;strokeColor=#3399FF;" edge="1" parent="1" source="S0ygH5e0wK9PVDV0vU4a-2" target="S0ygH5e0wK9PVDV0vU4a-11">
          <mxGeometry relative="1" as="geometry">
            <Array as="points">
              <mxPoint x="527" y="300" />
              <mxPoint x="880" y="300" />
            </Array>
          </mxGeometry>
        </mxCell>
        <mxCell id="S0ygH5e0wK9PVDV0vU4a-27" style="edgeStyle=orthogonalEdgeStyle;rounded=0;orthogonalLoop=1;jettySize=auto;html=1;entryX=0.5;entryY=0;entryDx=0;entryDy=0;fontSize=24;strokeColor=#3399FF;" edge="1" parent="1" source="S0ygH5e0wK9PVDV0vU4a-2" target="S0ygH5e0wK9PVDV0vU4a-10">
          <mxGeometry relative="1" as="geometry">
            <Array as="points">
              <mxPoint x="527" y="300" />
              <mxPoint x="710" y="300" />
            </Array>
          </mxGeometry>
        </mxCell>
        <mxCell id="S0ygH5e0wK9PVDV0vU4a-2" value="登录验证通过？" style="rhombus;whiteSpace=wrap;html=1;fontSize=24;strokeColor=#97D077;" vertex="1" parent="1">
          <mxGeometry x="420" y="110" width="214" height="130" as="geometry" />
        </mxCell>
        <mxCell id="S0ygH5e0wK9PVDV0vU4a-28" style="edgeStyle=orthogonalEdgeStyle;rounded=0;orthogonalLoop=1;jettySize=auto;html=1;entryX=0.5;entryY=0;entryDx=0;entryDy=0;fontSize=24;strokeColor=#3399FF;" edge="1" parent="1" source="S0ygH5e0wK9PVDV0vU4a-7" target="S0ygH5e0wK9PVDV0vU4a-12">
          <mxGeometry relative="1" as="geometry" />
        </mxCell>
        <mxCell id="S0ygH5e0wK9PVDV0vU4a-7" value="产品介绍" style="rounded=0;whiteSpace=wrap;html=1;fontSize=24;strokeColor=#97D077;" vertex="1" parent="1">
          <mxGeometry x="90" y="370" width="120" height="60" as="geometry" />
        </mxCell>
        <mxCell id="S0ygH5e0wK9PVDV0vU4a-29" style="edgeStyle=orthogonalEdgeStyle;rounded=0;orthogonalLoop=1;jettySize=auto;html=1;entryX=0.5;entryY=0;entryDx=0;entryDy=0;fontSize=24;strokeColor=#3399FF;" edge="1" parent="1" source="S0ygH5e0wK9PVDV0vU4a-8" target="S0ygH5e0wK9PVDV0vU4a-13">
          <mxGeometry relative="1" as="geometry" />
        </mxCell>
        <mxCell id="S0ygH5e0wK9PVDV0vU4a-30" style="edgeStyle=orthogonalEdgeStyle;rounded=0;orthogonalLoop=1;jettySize=auto;html=1;entryX=0.5;entryY=0;entryDx=0;entryDy=0;fontSize=24;strokeColor=#3399FF;" edge="1" parent="1" source="S0ygH5e0wK9PVDV0vU4a-8" target="S0ygH5e0wK9PVDV0vU4a-14">
          <mxGeometry relative="1" as="geometry" />
        </mxCell>
        <mxCell id="S0ygH5e0wK9PVDV0vU4a-31" style="edgeStyle=orthogonalEdgeStyle;rounded=0;orthogonalLoop=1;jettySize=auto;html=1;entryX=0.5;entryY=0;entryDx=0;entryDy=0;fontSize=24;strokeColor=#3399FF;" edge="1" parent="1" source="S0ygH5e0wK9PVDV0vU4a-8" target="S0ygH5e0wK9PVDV0vU4a-15">
          <mxGeometry relative="1" as="geometry" />
        </mxCell>
        <mxCell id="S0ygH5e0wK9PVDV0vU4a-8" value="我的产品" style="rounded=0;whiteSpace=wrap;html=1;fontSize=24;strokeColor=#97D077;" vertex="1" parent="1">
          <mxGeometry x="270" y="370" width="120" height="60" as="geometry" />
        </mxCell>
        <mxCell id="S0ygH5e0wK9PVDV0vU4a-32" style="edgeStyle=orthogonalEdgeStyle;rounded=0;orthogonalLoop=1;jettySize=auto;html=1;entryX=0.5;entryY=0;entryDx=0;entryDy=0;fontSize=24;strokeColor=#3399FF;" edge="1" parent="1" source="S0ygH5e0wK9PVDV0vU4a-9" target="S0ygH5e0wK9PVDV0vU4a-16">
          <mxGeometry relative="1" as="geometry" />
        </mxCell>
        <mxCell id="S0ygH5e0wK9PVDV0vU4a-33" style="edgeStyle=orthogonalEdgeStyle;rounded=0;orthogonalLoop=1;jettySize=auto;html=1;entryX=0.5;entryY=0;entryDx=0;entryDy=0;fontSize=24;strokeColor=#3399FF;" edge="1" parent="1" source="S0ygH5e0wK9PVDV0vU4a-9" target="S0ygH5e0wK9PVDV0vU4a-17">
          <mxGeometry relative="1" as="geometry" />
        </mxCell>
        <mxCell id="S0ygH5e0wK9PVDV0vU4a-34" style="edgeStyle=orthogonalEdgeStyle;rounded=0;orthogonalLoop=1;jettySize=auto;html=1;entryX=0.5;entryY=0;entryDx=0;entryDy=0;fontSize=24;strokeColor=#3399FF;" edge="1" parent="1" source="S0ygH5e0wK9PVDV0vU4a-9" target="S0ygH5e0wK9PVDV0vU4a-18">
          <mxGeometry relative="1" as="geometry" />
        </mxCell>
        <mxCell id="S0ygH5e0wK9PVDV0vU4a-9" value="子会员管理" style="rounded=0;whiteSpace=wrap;html=1;fontSize=24;strokeColor=#97D077;" vertex="1" parent="1">
          <mxGeometry x="457" y="370" width="140" height="60" as="geometry" />
        </mxCell>
        <mxCell id="S0ygH5e0wK9PVDV0vU4a-35" style="edgeStyle=orthogonalEdgeStyle;rounded=0;orthogonalLoop=1;jettySize=auto;html=1;fontSize=24;strokeColor=#3399FF;" edge="1" parent="1" source="S0ygH5e0wK9PVDV0vU4a-10" target="S0ygH5e0wK9PVDV0vU4a-20">
          <mxGeometry relative="1" as="geometry" />
        </mxCell>
        <mxCell id="S0ygH5e0wK9PVDV0vU4a-36" style="edgeStyle=orthogonalEdgeStyle;rounded=0;orthogonalLoop=1;jettySize=auto;html=1;fontSize=24;strokeColor=#3399FF;" edge="1" parent="1" source="S0ygH5e0wK9PVDV0vU4a-10" target="S0ygH5e0wK9PVDV0vU4a-19">
          <mxGeometry relative="1" as="geometry" />
        </mxCell>
        <mxCell id="S0ygH5e0wK9PVDV0vU4a-37" style="edgeStyle=orthogonalEdgeStyle;rounded=0;orthogonalLoop=1;jettySize=auto;html=1;entryX=0.5;entryY=0;entryDx=0;entryDy=0;fontSize=24;strokeColor=#3399FF;" edge="1" parent="1" source="S0ygH5e0wK9PVDV0vU4a-10" target="S0ygH5e0wK9PVDV0vU4a-21">
          <mxGeometry relative="1" as="geometry" />
        </mxCell>
        <mxCell id="S0ygH5e0wK9PVDV0vU4a-10" value="我的信息" style="rounded=0;whiteSpace=wrap;html=1;fontSize=24;strokeColor=#97D077;" vertex="1" parent="1">
          <mxGeometry x="650" y="370" width="120" height="60" as="geometry" />
        </mxCell>
        <mxCell id="S0ygH5e0wK9PVDV0vU4a-49" style="edgeStyle=orthogonalEdgeStyle;rounded=0;orthogonalLoop=1;jettySize=auto;html=1;entryX=0.5;entryY=0;entryDx=0;entryDy=0;fontSize=24;strokeColor=#3399FF;" edge="1" parent="1" source="S0ygH5e0wK9PVDV0vU4a-11" target="S0ygH5e0wK9PVDV0vU4a-38">
          <mxGeometry relative="1" as="geometry">
            <Array as="points">
              <mxPoint x="880" y="700" />
              <mxPoint x="527" y="700" />
            </Array>
          </mxGeometry>
        </mxCell>
        <mxCell id="S0ygH5e0wK9PVDV0vU4a-11" value="信息通知" style="rounded=0;whiteSpace=wrap;html=1;fontSize=24;strokeColor=#97D077;" vertex="1" parent="1">
          <mxGeometry x="820" y="370" width="120" height="60" as="geometry" />
        </mxCell>
        <mxCell id="S0ygH5e0wK9PVDV0vU4a-39" style="edgeStyle=orthogonalEdgeStyle;rounded=0;orthogonalLoop=1;jettySize=auto;html=1;fontSize=24;strokeColor=#3399FF;" edge="1" parent="1" source="S0ygH5e0wK9PVDV0vU4a-12" target="S0ygH5e0wK9PVDV0vU4a-38">
          <mxGeometry relative="1" as="geometry">
            <Array as="points">
              <mxPoint x="150" y="700" />
              <mxPoint x="527" y="700" />
            </Array>
          </mxGeometry>
        </mxCell>
        <mxCell id="S0ygH5e0wK9PVDV0vU4a-12" value="产品中心" style="rounded=0;whiteSpace=wrap;html=1;fontSize=24;strokeColor=#97D077;" vertex="1" parent="1">
          <mxGeometry x="130" y="490" width="40" height="130" as="geometry" />
        </mxCell>
        <mxCell id="S0ygH5e0wK9PVDV0vU4a-40" style="edgeStyle=orthogonalEdgeStyle;rounded=0;orthogonalLoop=1;jettySize=auto;html=1;fontSize=24;strokeColor=#3399FF;" edge="1" parent="1" source="S0ygH5e0wK9PVDV0vU4a-13" target="S0ygH5e0wK9PVDV0vU4a-38">
          <mxGeometry relative="1" as="geometry">
            <Array as="points">
              <mxPoint x="270" y="700" />
              <mxPoint x="527" y="700" />
            </Array>
          </mxGeometry>
        </mxCell>
        <mxCell id="S0ygH5e0wK9PVDV0vU4a-13" value="产品列表" style="rounded=0;whiteSpace=wrap;html=1;fontSize=24;strokeColor=#97D077;" vertex="1" parent="1">
          <mxGeometry x="250" y="490" width="40" height="130" as="geometry" />
        </mxCell>
        <mxCell id="S0ygH5e0wK9PVDV0vU4a-41" style="edgeStyle=orthogonalEdgeStyle;rounded=0;orthogonalLoop=1;jettySize=auto;html=1;fontSize=24;strokeColor=#3399FF;" edge="1" parent="1" source="S0ygH5e0wK9PVDV0vU4a-14" target="S0ygH5e0wK9PVDV0vU4a-38">
          <mxGeometry relative="1" as="geometry">
            <Array as="points">
              <mxPoint x="330" y="700" />
              <mxPoint x="527" y="700" />
            </Array>
          </mxGeometry>
        </mxCell>
        <mxCell id="S0ygH5e0wK9PVDV0vU4a-14" value="订单列表" style="rounded=0;whiteSpace=wrap;html=1;fontSize=24;strokeColor=#97D077;" vertex="1" parent="1">
          <mxGeometry x="310" y="490" width="40" height="130" as="geometry" />
        </mxCell>
        <mxCell id="S0ygH5e0wK9PVDV0vU4a-42" style="edgeStyle=orthogonalEdgeStyle;rounded=0;orthogonalLoop=1;jettySize=auto;html=1;fontSize=24;strokeColor=#3399FF;" edge="1" parent="1" source="S0ygH5e0wK9PVDV0vU4a-15" target="S0ygH5e0wK9PVDV0vU4a-38">
          <mxGeometry relative="1" as="geometry">
            <Array as="points">
              <mxPoint x="394" y="700" />
              <mxPoint x="527" y="700" />
            </Array>
          </mxGeometry>
        </mxCell>
        <mxCell id="S0ygH5e0wK9PVDV0vU4a-15" value="收益记录" style="rounded=0;whiteSpace=wrap;html=1;fontSize=24;strokeColor=#97D077;" vertex="1" parent="1">
          <mxGeometry x="373.5" y="490" width="40" height="130" as="geometry" />
        </mxCell>
        <mxCell id="S0ygH5e0wK9PVDV0vU4a-43" style="edgeStyle=orthogonalEdgeStyle;rounded=0;orthogonalLoop=1;jettySize=auto;html=1;entryX=0.5;entryY=0;entryDx=0;entryDy=0;fontSize=24;strokeColor=#3399FF;" edge="1" parent="1" source="S0ygH5e0wK9PVDV0vU4a-16" target="S0ygH5e0wK9PVDV0vU4a-38">
          <mxGeometry relative="1" as="geometry">
            <Array as="points">
              <mxPoint x="471" y="700" />
              <mxPoint x="527" y="700" />
            </Array>
          </mxGeometry>
        </mxCell>
        <mxCell id="S0ygH5e0wK9PVDV0vU4a-16" value="子会员管理" style="rounded=0;whiteSpace=wrap;html=1;fontSize=24;strokeColor=#97D077;" vertex="1" parent="1">
          <mxGeometry x="450" y="490" width="41" height="160" as="geometry" />
        </mxCell>
        <mxCell id="S0ygH5e0wK9PVDV0vU4a-44" style="edgeStyle=orthogonalEdgeStyle;rounded=0;orthogonalLoop=1;jettySize=auto;html=1;entryX=0.5;entryY=0;entryDx=0;entryDy=0;fontSize=24;strokeColor=#3399FF;" edge="1" parent="1" source="S0ygH5e0wK9PVDV0vU4a-17" target="S0ygH5e0wK9PVDV0vU4a-38">
          <mxGeometry relative="1" as="geometry" />
        </mxCell>
        <mxCell id="S0ygH5e0wK9PVDV0vU4a-17" value="子会员列表" style="rounded=0;whiteSpace=wrap;html=1;fontSize=24;strokeColor=#97D077;" vertex="1" parent="1">
          <mxGeometry x="506.5" y="490" width="41" height="160" as="geometry" />
        </mxCell>
        <mxCell id="S0ygH5e0wK9PVDV0vU4a-45" style="edgeStyle=orthogonalEdgeStyle;rounded=0;orthogonalLoop=1;jettySize=auto;html=1;entryX=0.5;entryY=0;entryDx=0;entryDy=0;fontSize=24;strokeColor=#3399FF;" edge="1" parent="1" source="S0ygH5e0wK9PVDV0vU4a-18" target="S0ygH5e0wK9PVDV0vU4a-38">
          <mxGeometry relative="1" as="geometry">
            <Array as="points">
              <mxPoint x="584" y="700" />
              <mxPoint x="527" y="700" />
            </Array>
          </mxGeometry>
        </mxCell>
        <mxCell id="S0ygH5e0wK9PVDV0vU4a-18" value="子会员订单" style="rounded=0;whiteSpace=wrap;html=1;fontSize=24;strokeColor=#97D077;" vertex="1" parent="1">
          <mxGeometry x="563" y="490" width="41" height="160" as="geometry" />
        </mxCell>
        <mxCell id="S0ygH5e0wK9PVDV0vU4a-47" style="edgeStyle=orthogonalEdgeStyle;rounded=0;orthogonalLoop=1;jettySize=auto;html=1;entryX=0.5;entryY=0;entryDx=0;entryDy=0;fontSize=24;strokeColor=#3399FF;" edge="1" parent="1" source="S0ygH5e0wK9PVDV0vU4a-19" target="S0ygH5e0wK9PVDV0vU4a-38">
          <mxGeometry relative="1" as="geometry">
            <Array as="points">
              <mxPoint x="710" y="700" />
              <mxPoint x="527" y="700" />
            </Array>
          </mxGeometry>
        </mxCell>
        <mxCell id="S0ygH5e0wK9PVDV0vU4a-19" value="财务账号" style="rounded=0;whiteSpace=wrap;html=1;fontSize=24;strokeColor=#97D077;" vertex="1" parent="1">
          <mxGeometry x="690" y="490" width="40" height="130" as="geometry" />
        </mxCell>
        <mxCell id="S0ygH5e0wK9PVDV0vU4a-46" style="edgeStyle=orthogonalEdgeStyle;rounded=0;orthogonalLoop=1;jettySize=auto;html=1;entryX=0.5;entryY=0;entryDx=0;entryDy=0;fontSize=24;strokeColor=#3399FF;" edge="1" parent="1" source="S0ygH5e0wK9PVDV0vU4a-20" target="S0ygH5e0wK9PVDV0vU4a-38">
          <mxGeometry relative="1" as="geometry">
            <Array as="points">
              <mxPoint x="650" y="700" />
              <mxPoint x="527" y="700" />
            </Array>
          </mxGeometry>
        </mxCell>
        <mxCell id="S0ygH5e0wK9PVDV0vU4a-20" value="基本信息" style="rounded=0;whiteSpace=wrap;html=1;fontSize=24;strokeColor=#97D077;" vertex="1" parent="1">
          <mxGeometry x="630" y="490" width="40" height="130" as="geometry" />
        </mxCell>
        <mxCell id="S0ygH5e0wK9PVDV0vU4a-48" style="edgeStyle=orthogonalEdgeStyle;rounded=0;orthogonalLoop=1;jettySize=auto;html=1;entryX=0.5;entryY=0;entryDx=0;entryDy=0;fontSize=24;strokeColor=#3399FF;" edge="1" parent="1" source="S0ygH5e0wK9PVDV0vU4a-21" target="S0ygH5e0wK9PVDV0vU4a-38">
          <mxGeometry relative="1" as="geometry">
            <Array as="points">
              <mxPoint x="770" y="700" />
              <mxPoint x="527" y="700" />
            </Array>
          </mxGeometry>
        </mxCell>
        <mxCell id="S0ygH5e0wK9PVDV0vU4a-21" value="修改密码" style="rounded=0;whiteSpace=wrap;html=1;fontSize=24;strokeColor=#97D077;" vertex="1" parent="1">
          <mxGeometry x="750" y="490" width="40" height="130" as="geometry" />
        </mxCell>
        <mxCell id="S0ygH5e0wK9PVDV0vU4a-38" value="结束" style="rounded=1;whiteSpace=wrap;html=1;fontSize=24;strokeColor=#97D077;" vertex="1" parent="1">
          <mxGeometry x="471.5" y="740" width="111" height="40" as="geometry" />
        </mxCell>
      </root>
    </mxGraphModel>
  </diagram>
</mxfile>
